HIERARCHY
ROOT Hips
{
  OFFSET 0.000 67.698 0.000
  CHANNELS 6 Xposition Yposition Zposition Zrotation Xrotation Yrotation
  JOINT LeftUpLeg
  {
    OFFSET 7.785 0.508 3.446
    CHANNELS 6 Xposition Yposition Zposition Zrotation Xrotation Yrotation
    JOINT LeftLeg
    {
      OFFSET 0.000 -35.017 0.000
      CHANNELS 6 Xposition Yposition Zposition Zrotation Xrotation Yrotation
      JOINT LeftFoot
      {
        OFFSET 0.000 -33.188 0.000
        CHANNELS 6 Xposition Yposition Zposition Zrotation Xrotation Yrotation
        End Site
        {
          OFFSET 0.000 0.000 9.742
        }
      }
    }
  }
  JOINT RightUpLeg
  {
    OFFSET -7.785 0.508 3.446
    CHANNELS 6 Xposition Yposition Zposition Zrotation Xrotation Yrotation
    JOINT RightLeg
    {
      OFFSET 0.000 -35.017 0.000
      CHANNELS 6 Xposition Yposition Zposition Zrotation Xrotation Yrotation
      JOINT RightFoot
      {
        OFFSET 0.000 -33.188 0.000
        CHANNELS 6 Xposition Yposition Zposition Zrotation Xrotation Yrotation
        End Site
        {
          OFFSET 0.000 0.000 9.742
        }
      }
    }
  }
  JOINT Spine
  {
    OFFSET 0.000 32.056 0.000
    CHANNELS 6 Xposition Yposition Zposition Zrotation Xrotation Yrotation
    JOINT Spine1
    {
      OFFSET 0.000 23.505 0.000
      CHANNELS 6 Xposition Yposition Zposition Zrotation Xrotation Yrotation
      JOINT LeftShoulder
      {
        OFFSET 1.698 -0.505 0.148
        CHANNELS 6 Xposition Yposition Zposition Zrotation Xrotation Yrotation
        JOINT LeftArm
        {
          OFFSET 15.880 0.000 0.000
          CHANNELS 6 Xposition Yposition Zposition Zrotation Xrotation Yrotation
          JOINT LeftForeArm
          {
            OFFSET 24.459 0.000 0.000
            CHANNELS 6 Xposition Yposition Zposition Zrotation Xrotation Yrotation
            JOINT LeftHand
            {
              OFFSET 22.170 0.000 0.000
              CHANNELS 6 Xposition Yposition Zposition Zrotation Xrotation Yrotation
              JOINT LeftHandThumb1
              {
                OFFSET 4.877 -1.044 3.608
                CHANNELS 6 Xposition Yposition Zposition Zrotation Xrotation Yrotation
                JOINT LeftHandThumb2
                {
                  OFFSET 2.665 0.000 0.000
                  CHANNELS 6 Xposition Yposition Zposition Zrotation Xrotation Yrotation
                  JOINT LeftHandThumb3
                  {
                    OFFSET 2.543 -0.000 -0.000
                    CHANNELS 6 Xposition Yposition Zposition Zrotation Xrotation Yrotation
                    End Site
                    {
                      OFFSET 2.667 0.000 0.000
                    }
                  }
                }
              }
              JOINT LeftHandIndex1
              {
                OFFSET 9.232 -0.301 2.144
                CHANNELS 6 Xposition Yposition Zposition Zrotation Xrotation Yrotation
                JOINT LeftHandIndex2
                {
                  OFFSET 4.225 0.000 0.000
                  CHANNELS 6 Xposition Yposition Zposition Zrotation Xrotation Yrotation
                  JOINT LeftHandIndex3
                  {
                    OFFSET 2.654 0.000 0.000
                    CHANNELS 6 Xposition Yposition Zposition Zrotation Xrotation Yrotation
                    End Site
                    {
                      OFFSET 1.958 0.000 0.000
                    }
                  }
                }
              }
              JOINT LeftHandMiddle1
              {
                OFFSET 8.920 0.000 0.000
                CHANNELS 6 Xposition Yposition Zposition Zrotation Xrotation Yrotation
                JOINT LeftHandMiddle2
                {
                  OFFSET 4.863 -0.000 0.000
                  CHANNELS 6 Xposition Yposition Zposition Zrotation Xrotation Yrotation
                  JOINT LeftHandMiddle3
                  {
                    OFFSET 2.765 0.000 0.000
                    CHANNELS 6 Xposition Yposition Zposition Zrotation Xrotation Yrotation
                    End Site
                    {
                      OFFSET 2.006 0.000 -0.000
                    }
                  }
                }
              }
              JOINT LeftHandRing1
              {
                OFFSET 8.689 -0.126 -2.087
                CHANNELS 6 Xposition Yposition Zposition Zrotation Xrotation Yrotation
                JOINT LeftHandRing2
                {
                  OFFSET 4.538 0.000 -0.000
                  CHANNELS 6 Xposition Yposition Zposition Zrotation Xrotation Yrotation
                  JOINT LeftHandRing3
                  {
                    OFFSET 2.305 -0.000 0.000
                    CHANNELS 6 Xposition Yposition Zposition Zrotation Xrotation Yrotation
                    End Site
                    {
                      OFFSET 1.923 -0.000 0.000
                    }
                  }
                }
              }
              JOINT LeftHandPinky1
              {
                OFFSET 8.391 -0.817 -3.758
                CHANNELS 6 Xposition Yposition Zposition Zrotation Xrotation Yrotation
                JOINT LeftHandPinky2
                {
                  OFFSET 3.044 0.000 -0.000
                  CHANNELS 6 Xposition Yposition Zposition Zrotation Xrotation Yrotation
                  JOINT LeftHandPinky3
                  {
                    OFFSET 1.975 -0.000 0.000
                    CHANNELS 6 Xposition Yposition Zposition Zrotation Xrotation Yrotation
                    End Site
                    {
                      OFFSET 1.667 0.000 -0.000
                    }
                  }
                }
              }
            }
          }
        }
      }
      JOINT RightShoulder
      {
        OFFSET -1.698 -0.505 0.148
        CHANNELS 6 Xposition Yposition Zposition Zrotation Xrotation Yrotation
        JOINT RightArm
        {
          OFFSET -15.880 0.000 0.000
          CHANNELS 6 Xposition Yposition Zposition Zrotation Xrotation Yrotation
          JOINT RightForeArm
          {
            OFFSET -24.459 0.000 0.000
            CHANNELS 6 Xposition Yposition Zposition Zrotation Xrotation Yrotation
            JOINT RightHand
            {
              OFFSET -22.170 0.000 0.000
              CHANNELS 6 Xposition Yposition Zposition Zrotation Xrotation Yrotation
              JOINT RightHandThumb1
              {
                OFFSET -4.877 -1.044 3.608
                CHANNELS 6 Xposition Yposition Zposition Zrotation Xrotation Yrotation
                JOINT RightHandThumb2
                {
                  OFFSET -2.665 -0.000 -0.000
                  CHANNELS 6 Xposition Yposition Zposition Zrotation Xrotation Yrotation
                  JOINT RightHandThumb3
                  {
                    OFFSET -2.543 0.000 0.000
                    CHANNELS 6 Xposition Yposition Zposition Zrotation Xrotation Yrotation
                    End Site
                    {
                      OFFSET -2.667 0.000 0.000
                    }
                  }
                }
              }
              JOINT RightHandIndex1
              {
                OFFSET -9.232 -0.301 2.144
                CHANNELS 6 Xposition Yposition Zposition Zrotation Xrotation Yrotation
                JOINT RightHandIndex2
                {
                  OFFSET -4.225 0.000 0.000
                  CHANNELS 6 Xposition Yposition Zposition Zrotation Xrotation Yrotation
                  JOINT RightHandIndex3
                  {
                    OFFSET -2.654 0.000 -0.000
                    CHANNELS 6 Xposition Yposition Zposition Zrotation Xrotation Yrotation
                    End Site
                    {
                      OFFSET -1.958 0.000 -0.000
                    }
                  }
                }
              }
              JOINT RightHandMiddle1
              {
                OFFSET -8.920 0.000 0.000
                CHANNELS 6 Xposition Yposition Zposition Zrotation Xrotation Yrotation
                JOINT RightHandMiddle2
                {
                  OFFSET -4.863 0.000 0.000
                  CHANNELS 6 Xposition Yposition Zposition Zrotation Xrotation Yrotation
                  JOINT RightHandMiddle3
                  {
                    OFFSET -2.765 0.000 0.000
                    CHANNELS 6 Xposition Yposition Zposition Zrotation Xrotation Yrotation
                    End Site
                    {
                      OFFSET -2.006 0.000 0.000
                    }
                  }
                }
              }
              JOINT RightHandRing1
              {
                OFFSET -8.689 -0.126 -2.087
                CHANNELS 6 Xposition Yposition Zposition Zrotation Xrotation Yrotation
                JOINT RightHandRing2
                {
                  OFFSET -4.538 0.000 0.000
                  CHANNELS 6 Xposition Yposition Zposition Zrotation Xrotation Yrotation
                  JOINT RightHandRing3
                  {
                    OFFSET -2.305 0.000 -0.000
                    CHANNELS 6 Xposition Yposition Zposition Zrotation Xrotation Yrotation
                    End Site
                    {
                      OFFSET -1.923 -0.000 0.000
                    }
                  }
                }
              }
              JOINT RightHandPinky1
              {
                OFFSET -8.391 -0.817 -3.758
                CHANNELS 6 Xposition Yposition Zposition Zrotation Xrotation Yrotation
                JOINT RightHandPinky2
                {
                  OFFSET -3.044 0.000 0.000
                  CHANNELS 6 Xposition Yposition Zposition Zrotation Xrotation Yrotation
                  JOINT RightHandPinky3
                  {
                    OFFSET -1.975 0.000 -0.000
                    CHANNELS 6 Xposition Yposition Zposition Zrotation Xrotation Yrotation
                    End Site
                    {
                      OFFSET -1.667 0.000 0.000
                    }
                  }
                }
              }
            }
          }
        }
      }
      JOINT Neck
      {
        OFFSET 0.000 0.769 0.000
        CHANNELS 6 Xposition Yposition Zposition Zrotation Xrotation Yrotation
        JOINT Head
        {
          OFFSET 0.000 6.990 0.000
          CHANNELS 6 Xposition Yposition Zposition Zrotation Xrotation Yrotation
          End Site
          {
            OFFSET 0.000 15.945 0.000
          }
        }
      }
    }
  }
}
MOTION
Frames:	4
Frame Time:	0.033333
4.10592 69.07052 -227.03279 24.22890 -0.74473 -27.52766 9.29663 0.25292 3.05281 -3.14490 -2.90741 16.60267 0.02152 -36.76161 0.01340 -11.04076 3.67322 4.20622 -0.00784 -29.80009 0.00743 -3.10957 28.54787 6.48263 -5.67662 0.79668 3.06136 -21.82902 -26.88218 -6.95164 -0.00097 -33.29619 -0.00052 -9.20693 34.93002 0.41271 0.00027 -30.13791 0.02449 -0.56198 18.98952 1.76486 -0.04217 33.35249 -0.00092 -0.46557 1.80436 3.12726 -0.03001 24.55621 -0.00134 -0.96262 2.03619 3.38319 1.66266 -0.57808 0.11258 -19.53785 1.42416 -4.07319 15.62876 0.02314 0.00613 -47.00590 5.36262 -1.76785 26.91828 0.03164 0.00928 -24.94644 16.64141 -25.14170 24.76323 0.00215 0.02956 -23.32246 16.36478 15.11637 4.87698 -1.04399 3.60802 -41.57595 -8.45725 -7.72882 2.66498 0.00004 0.00002 0.00000 0.00000 5.00000 2.54301 -0.00002 -0.00002 -0.00002 0.00000 60.00001 9.23199 -0.30100 2.14401 -80.00000 -0.00001 0.00000 4.22498 0.00000 0.00001 -90.00000 0.00000 0.00000 2.65400 0.00001 0.00000 -69.99999 0.00000 0.00001 8.92000 0.00004 0.00004 -80.00000 -0.00001 0.00000 4.86301 -0.00001 0.00000 -90.00000 0.00000 0.00000 2.76501 0.00000 0.00000 -69.99999 0.00000 0.00001 8.68899 -0.12598 -2.08697 -80.00000 -0.00001 0.00000 4.53801 0.00000 -0.00001 -90.00000 0.00000 0.00000 2.30500 -0.00002 0.00002 -69.99999 0.00000 0.00001 8.39099 -0.81700 -3.75799 -80.00000 -0.00001 0.00000 3.04402 0.00000 -0.00001 -90.00000 0.00000 0.00000 1.97502 -0.00001 0.00001 -69.99999 0.00000 0.00001 -1.37368 -0.84896 0.12981 32.08611 2.69187 4.29662 -14.43509 0.06580 0.02618 47.91682 5.80479 7.21712 -23.04205 -0.01020 0.00916 -4.93507 6.67946 26.38349 -23.76180 -0.00102 -0.01733 15.51017 22.99359 -3.98629 -4.87702 -1.04399 3.60801 40.90540 11.75460 -3.91034 -2.66501 -0.00002 -0.00002 0.00000 0.00000 -5.00000 -2.54298 0.00002 0.00001 0.00000 -0.00000 -60.00000 -9.23201 -0.30100 2.14400 -2.00000 -0.00000 -0.00000 -4.22502 0.00001 0.00001 -2.00000 -0.00000 -0.00000 -2.65399 0.00001 -0.00001 -2.00000 0.00000 0.00000 -8.92000 0.00000 0.00000 80.00000 -0.00001 0.00001 -4.86299 0.00001 0.00001 90.00000 -0.00000 0.00001 -2.76499 0.00000 0.00001 70.00000 -0.00001 0.00001 -8.68900 -0.12600 -2.08700 80.00000 -0.00001 0.00001 -4.53799 0.00000 0.00000 90.00000 -0.00000 0.00001 -2.30502 0.00001 -0.00001 70.00000 -0.00001 0.00001 -8.39100 -0.81700 -3.75799 -2.00000 -0.00000 -0.00000 -3.04401 0.00001 0.00000 -2.00000 -0.00000 -0.00000 -1.97500 0.00000 -0.00001 -2.00000 0.00000 0.00000 -0.00002 0.79755 0.00007 0.00002 -0.00003 -0.00002 0.01035 7.22774 -0.00000 15.49407 8.99861 1.48073 
3.97005 68.89816 -227.00887 24.79624 -0.75667 -27.91324 9.32266 0.23494 3.04220 -3.47283 -2.87714 16.76536 0.01829 -36.73734 0.01268 -11.28206 3.32762 4.33203 -0.00629 -29.72352 0.00743 -3.32569 28.59782 6.91853 -5.65296 0.80714 3.04998 -22.13700 -28.07482 -6.64382 -0.00057 -33.34308 -0.00024 -9.52983 36.70162 0.70999 0.00027 -30.20863 0.01389 -0.67443 17.53803 2.38389 -0.03630 33.36036 -0.00074 -0.46396 1.80144 3.16182 -0.02576 24.54411 -0.00100 -0.94920 2.04068 3.40572 1.67090 -0.57831 0.10355 -19.56536 1.31097 -3.75256 15.71559 0.01828 0.00617 -46.90005 5.53550 -1.80154 26.98411 0.02618 0.00851 -24.73471 17.09271 -25.19000 24.34161 0.00181 0.03384 -24.84336 16.51727 15.39150 4.87698 -1.04399 3.60802 -41.57595 -8.45725 -7.72882 2.66498 0.00004 0.00002 0.00000 0.00000 5.00000 2.54301 -0.00002 -0.00002 -0.00002 0.00000 60.00001 9.23199 -0.30100 2.14401 -80.00000 -0.00001 0.00000 4.22498 0.00000 0.00001 -90.00000 0.00000 0.00000 2.65400 0.00001 0.00000 -69.99999 0.00000 0.00001 8.92000 0.00004 0.00004 -80.00000 -0.00001 0.00000 4.86301 -0.00001 0.00000 -90.00000 0.00000 0.00000 2.76501 0.00000 0.00000 -69.99999 0.00000 0.00001 8.68899 -0.12598 -2.08697 -80.00000 -0.00001 0.00000 4.53801 0.00000 -0.00001 -90.00000 0.00000 0.00000 2.30500 -0.00002 0.00002 -69.99999 0.00000 0.00001 8.39099 -0.81700 -3.75799 -80.00000 -0.00001 0.00000 3.04402 0.00000 -0.00001 -90.00000 0.00000 0.00000 1.97502 -0.00001 0.00001 -69.99999 0.00000 0.00001 -1.33078 -0.83085 0.12097 32.34285 2.59026 4.09006 -14.02327 0.06243 0.02647 47.29872 4.78888 7.33670 -23.79023 -0.00851 0.00383 -4.29216 6.76780 27.11271 -23.23388 0.00963 -0.02960 16.49913 22.86661 -4.46982 -4.87702 -1.04399 3.60801 40.90540 11.75460 -3.91034 -2.66501 -0.00002 -0.00002 0.00000 0.00000 -5.00000 -2.54298 0.00002 0.00001 0.00000 -0.00000 -60.00000 -9.23201 -0.30100 2.14400 -2.00000 -0.00000 -0.00000 -4.22502 0.00001 0.00001 -2.00000 -0.00000 -0.00000 -2.65399 0.00001 -0.00001 -2.00000 0.00000 0.00000 -8.92000 0.00000 0.00000 80.00000 -0.00001 0.00001 -4.86299 0.00001 0.00001 90.00000 -0.00000 0.00001 -2.76499 0.00000 0.00001 70.00000 -0.00001 0.00001 -8.68900 -0.12600 -2.08700 80.00000 -0.00001 0.00001 -4.53799 0.00000 0.00000 90.00000 -0.00000 0.00001 -2.30502 0.00001 -0.00001 70.00000 -0.00001 0.00001 -8.39100 -0.81700 -3.75799 -2.00000 -0.00000 -0.00000 -3.04401 0.00001 0.00000 -2.00000 -0.00000 -0.00000 -1.97500 0.00000 -0.00001 -2.00000 0.00000 0.00000 -0.00002 0.79780 0.00007 0.00002 -0.00003 -0.00002 0.01036 7.22447 -0.00021 15.96049 8.90397 1.89458 
3.86890 68.75951 -226.98277 25.29807 -0.76786 -28.24123 9.34869 0.21866 3.03351 -3.75582 -2.85207 16.88951 0.01291 -36.62267 0.01201 -11.51209 3.01168 4.49289 -0.00546 -29.76324 0.00743 -3.57514 28.76658 7.39335 -5.63673 0.81391 3.04031 -22.32745 -28.87634 -6.33455 -0.00019 -33.37666 0.00004 -9.89515 37.72374 0.95059 0.00027 -30.19076 0.01069 -0.62791 16.34468 2.33929 -0.03065 33.36244 -0.00057 -0.45051 1.79678 3.20242 -0.02170 24.53428 -0.00074 -0.94871 2.03494 3.43397 1.67829 -0.57840 0.09538 -19.57919 1.20576 -3.45299 15.80073 0.01472 0.00630 -46.84555 5.80182 -1.86676 27.03466 0.02103 0.00764 -24.42910 17.46515 -25.22059 24.00102 0.00147 0.03648 -26.02792 16.74494 15.22218 4.87698 -1.04399 3.60802 -41.57595 -8.45725 -7.72882 2.66498 0.00004 0.00002 0.00000 0.00000 5.00000 2.54301 -0.00002 -0.00002 -0.00002 0.00000 60.00001 9.23199 -0.30100 2.14401 -80.00000 -0.00001 0.00000 4.22498 0.00000 0.00001 -90.00000 0.00000 0.00000 2.65400 0.00001 0.00000 -69.99999 0.00000 0.00001 8.92000 0.00004 0.00004 -80.00000 -0.00001 0.00000 4.86301 -0.00001 0.00000 -90.00000 0.00000 0.00000 2.76501 0.00000 0.00000 -69.99999 0.00000 0.00001 8.68899 -0.12598 -2.08697 -80.00000 -0.00001 0.00000 4.53801 0.00000 -0.00001 -90.00000 0.00000 0.00000 2.30500 -0.00002 0.00002 -69.99999 0.00000 0.00001 8.39099 -0.81700 -3.75799 -80.00000 -0.00001 0.00000 3.04402 0.00000 -0.00001 -90.00000 0.00000 0.00000 1.97502 -0.00001 0.00001 -69.99999 0.00000 0.00001 -1.29482 -0.81416 0.11229 32.50480 2.47319 3.87624 -13.67208 0.05508 0.02665 46.88061 3.84904 7.43687 -24.33987 -0.00719 0.00165 -3.66808 6.85882 27.66581 -22.90712 0.01635 -0.02992 17.21307 22.74448 -4.53294 -4.87702 -1.04399 3.60801 40.90540 11.75460 -3.91034 -2.66501 -0.00002 -0.00002 0.00000 0.00000 -5.00000 -2.54298 0.00002 0.00001 0.00000 -0.00000 -60.00000 -9.23201 -0.30100 2.14400 -2.00000 -0.00000 -0.00000 -4.22502 0.00001 0.00001 -2.00000 -0.00000 -0.00000 -2.65399 0.00001 -0.00001 -2.00000 0.00000 0.00000 -8.92000 0.00000 0.00000 80.00000 -0.00001 0.00001 -4.86299 0.00001 0.00001 90.00000 -0.00000 0.00001 -2.76499 0.00000 0.00001 70.00000 -0.00001 0.00001 -8.68900 -0.12600 -2.08700 80.00000 -0.00001 0.00001 -4.53799 0.00000 0.00000 90.00000 -0.00000 0.00001 -2.30502 0.00001 -0.00001 70.00000 -0.00001 0.00001 -8.39100 -0.81700 -3.75799 -2.00000 -0.00000 -0.00000 -3.04401 0.00001 0.00000 -2.00000 -0.00000 -0.00000 -1.97500 0.00000 -0.00001 -2.00000 0.00000 0.00000 -0.00002 0.79803 0.00007 0.00002 -0.00003 -0.00002 0.01027 7.22250 -0.00041 16.48914 8.80357 2.08313 
3.78991 68.64112 -226.94940 25.73669 -0.78977 -28.46225 9.37203 0.20710 3.02694 -4.03648 -2.80841 16.89606 0.00937 -36.52549 0.01137 -11.69909 2.69434 4.69276 -0.00461 -29.80213 0.00743 -3.72791 28.79811 7.69844 -5.63078 0.81462 3.03251 -22.49466 -29.43172 -6.10594 0.00017 -33.40069 0.00032 -10.26674 38.42414 1.17148 0.00027 -30.13842 0.01054 -0.58296 14.89542 2.37076 -0.02524 33.35732 -0.00043 -0.44898 1.77409 3.22138 -0.01780 24.52075 -0.00053 -0.95616 2.02295 3.44019 1.68398 -0.57838 0.08832 -19.51295 1.10781 -3.18416 15.86502 0.01102 0.00651 -46.84184 6.27085 -1.90669 27.07862 0.01762 0.00672 -24.25900 17.65591 -25.36588 23.99165 0.00111 0.02952 -26.47026 17.12471 14.78423 4.87698 -1.04399 3.60802 -41.57595 -8.45725 -7.72882 2.66498 0.00004 0.00002 0.00000 0.00000 5.00000 2.54301 -0.00002 -0.00002 -0.00002 0.00000 60.00001 9.23199 -0.30100 2.14401 -80.00000 -0.00001 0.00000 4.22498 0.00000 0.00001 -90.00000 0.00000 0.00000 2.65400 0.00001 0.00000 -69.99999 0.00000 0.00001 8.92000 0.00004 0.00004 -80.00000 -0.00001 0.00000 4.86301 -0.00001 0.00000 -90.00000 0.00000 0.00000 2.76501 0.00000 0.00000 -69.99999 0.00000 0.00001 8.68899 -0.12598 -2.08697 -80.00000 -0.00001 0.00000 4.53801 0.00000 -0.00001 -90.00000 0.00000 0.00000 2.30500 -0.00002 0.00002 -69.99999 0.00000 0.00001 8.39099 -0.81700 -3.75799 -80.00000 -0.00001 0.00000 3.04402 0.00000 -0.00001 -90.00000 0.00000 0.00000 1.97502 -0.00001 0.00001 -69.99999 0.00000 0.00001 -1.26550 -0.79842 0.10405 32.55375 2.34732 3.66771 -13.37656 0.04588 0.02675 46.67609 3.05157 7.53409 -24.74023 -0.00605 0.00066 -2.67918 6.95560 27.79593 -22.60039 0.02217 -0.01982 16.45723 21.99258 -3.62051 -4.87702 -1.04399 3.60801 40.90540 11.75460 -3.91034 -2.66501 -0.00002 -0.00002 0.00000 0.00000 -5.00000 -2.54298 0.00002 0.00001 0.00000 -0.00000 -60.00000 -9.23201 -0.30100 2.14400 -2.00000 -0.00000 -0.00000 -4.22502 0.00001 0.00001 -2.00000 -0.00000 -0.00000 -2.65399 0.00001 -0.00001 -2.00000 0.00000 0.00000 -8.92000 0.00000 0.00000 80.00000 -0.00001 0.00001 -4.86299 0.00001 0.00001 90.00000 -0.00000 0.00001 -2.76499 0.00000 0.00001 70.00000 -0.00001 0.00001 -8.68900 -0.12600 -2.08700 80.00000 -0.00001 0.00001 -4.53799 0.00000 0.00000 90.00000 -0.00000 0.00001 -2.30502 0.00001 -0.00001 70.00000 -0.00001 0.00001 -8.39100 -0.81700 -3.75799 -2.00000 -0.00000 -0.00000 -3.04401 0.00001 0.00000 -2.00000 -0.00000 -0.00000 -1.97500 0.00000 -0.00001 -2.00000 0.00000 0.00000 -0.00002 0.79823 0.00007 0.00002 -0.00003 -0.00002 0.01011 7.22212 -0.00060 16.76484 8.64269 2.25595 
